<?xml version="1.0" encoding="UTF-8"?>
<svg xmlns="http://www.w3.org/2000/svg" xmlns:xlink="http://www.w3.org/1999/xlink" width="218" height="90" viewBox="0 0 218 90">
<defs>
<g>
<g id="glyph-0-0">
<path d="M 0.765625 0 L 2.078125 0 L 2.078125 -2.375 C 2.078125 -3.015625 1.96875 -4.109375 1.890625 -4.75 L 1.9375 -4.75 L 2.4375 -3.046875 L 3.34375 -0.5625 L 4.203125 -0.5625 L 5.125 -3.046875 L 5.65625 -4.75 L 5.6875 -4.75 C 5.609375 -4.109375 5.5 -3.015625 5.5 -2.375 L 5.5 0 L 6.84375 0 L 6.84375 -6.5 L 5.203125 -6.5 L 4.1875 -3.609375 C 4.0625 -3.21875 3.953125 -2.828125 3.84375 -2.40625 L 3.796875 -2.40625 C 3.671875 -2.828125 3.5625 -3.21875 3.4375 -3.609375 L 2.40625 -6.5 L 0.765625 -6.5 Z M 0.765625 0 "/>
</g>
<g id="glyph-0-1">
<path d="M 0.640625 0 L 2.109375 0 L 2.109375 -4.9375 L 0.640625 -4.9375 Z M 1.375 -5.671875 C 1.859375 -5.671875 2.203125 -5.96875 2.203125 -6.4375 C 2.203125 -6.890625 1.859375 -7.203125 1.375 -7.203125 C 0.890625 -7.203125 0.546875 -6.890625 0.546875 -6.4375 C 0.546875 -5.96875 0.890625 -5.671875 1.375 -5.671875 Z M 1.375 -5.671875 "/>
</g>
<g id="glyph-0-2">
<path d="M 2.828125 0.125 C 3.4375 0.125 4.03125 -0.109375 4.4375 -0.484375 L 3.859375 -1.390625 C 3.609375 -1.1875 3.3125 -1.0625 2.984375 -1.0625 C 2.328125 -1.0625 1.859375 -1.609375 1.859375 -2.46875 C 1.859375 -3.328125 2.328125 -3.875 3.015625 -3.875 C 3.3125 -3.875 3.515625 -3.78125 3.6875 -3.625 L 4.375 -4.53125 C 4.03125 -4.859375 3.53125 -5.0625 2.9375 -5.0625 C 1.5625 -5.0625 0.359375 -4.109375 0.359375 -2.46875 C 0.359375 -0.828125 1.421875 0.125 2.828125 0.125 Z M 2.828125 0.125 "/>
</g>
<g id="glyph-0-3">
<path d="M 0.640625 0 L 2.09375 0 L 2.09375 -1.234375 L 2.703125 -1.921875 L 3.8125 0 L 5.40625 0 L 3.5625 -2.890625 L 5.28125 -4.9375 L 3.671875 -4.9375 L 2.140625 -3 L 2.09375 -3 L 2.09375 -6.984375 L 0.640625 -6.984375 Z M 0.640625 0 "/>
</g>
<g id="glyph-0-4">
<path d="M 2.71875 -3.9375 C 3.3125 -3.9375 3.53125 -3.5625 3.53125 -3.046875 L 1.78125 -3.046875 C 1.90625 -3.71875 2.328125 -3.9375 2.71875 -3.9375 Z M 2.859375 0.125 C 3.453125 0.125 4.109375 -0.078125 4.609375 -0.421875 L 4.140625 -1.328125 C 3.78125 -1.109375 3.421875 -1 3.0625 -1 C 2.5 -1 1.9375 -1.25 1.78125 -2.03125 L 4.734375 -2.03125 C 4.765625 -2.171875 4.796875 -2.4375 4.796875 -2.6875 C 4.796875 -4.03125 4.109375 -5.0625 2.6875 -5.0625 C 1.5 -5.0625 0.359375 -4.078125 0.359375 -2.46875 C 0.359375 -0.828125 1.453125 0.125 2.859375 0.125 Z M 2.859375 0.125 "/>
</g>
<g id="glyph-0-5">
<path d="M 1.203125 1.9375 C 2.359375 1.9375 2.890625 1.296875 3.359375 0.046875 L 5.078125 -4.9375 L 3.671875 -4.9375 L 3.078125 -2.828125 C 2.953125 -2.359375 2.84375 -1.890625 2.734375 -1.421875 L 2.6875 -1.421875 C 2.5625 -1.90625 2.4375 -2.375 2.296875 -2.828125 L 1.59375 -4.9375 L 0.125 -4.9375 L 2.03125 -0.125 L 1.953125 0.125 C 1.828125 0.515625 1.578125 0.78125 1.09375 0.78125 C 0.984375 0.78125 0.90625 0.78125 0.75 0.734375 L 0.5 1.8125 C 0.703125 1.890625 0.890625 1.9375 1.203125 1.9375 Z M 1.203125 1.9375 "/>
</g>
<g id="glyph-0-6">
<path d="M 0.421875 -2 L 2.875 -2 L 2.875 -3.046875 L 0.421875 -3.046875 Z M 0.421875 -2 "/>
</g>
<g id="glyph-0-7">
<path d="M 2.765625 0.125 C 4.015625 0.125 5.171875 -0.828125 5.171875 -2.46875 C 5.171875 -4.109375 4.015625 -5.0625 2.765625 -5.0625 C 1.515625 -5.0625 0.359375 -4.109375 0.359375 -2.46875 C 0.359375 -0.828125 1.515625 0.125 2.765625 0.125 Z M 2.765625 -1.0625 C 2.15625 -1.0625 1.859375 -1.609375 1.859375 -2.46875 C 1.859375 -3.328125 2.15625 -3.875 2.765625 -3.875 C 3.375 -3.875 3.671875 -3.328125 3.671875 -2.46875 C 3.671875 -1.609375 3.375 -1.0625 2.765625 -1.0625 Z M 2.765625 -1.0625 "/>
</g>
<g id="glyph-0-8">
<path d="M 2.140625 0.125 C 2.8125 0.125 3.265625 -0.1875 3.6875 -0.6875 L 3.71875 -0.6875 L 3.828125 0 L 5.03125 0 L 5.03125 -4.9375 L 3.5625 -4.9375 L 3.5625 -1.671875 C 3.265625 -1.28125 3.046875 -1.125 2.6875 -1.125 C 2.25 -1.125 2.0625 -1.359375 2.0625 -2.0625 L 2.0625 -4.9375 L 0.59375 -4.9375 L 0.59375 -1.875 C 0.59375 -0.640625 1.0625 0.125 2.140625 0.125 Z M 2.140625 0.125 "/>
</g>
<g id="glyph-0-9">
<path d="M 2.109375 0.125 C 3.421875 0.125 4.140625 -0.578125 4.140625 -1.46875 C 4.140625 -2.296875 3.53125 -2.734375 2.765625 -2.984375 C 2.140625 -3.1875 1.859375 -3.296875 1.859375 -3.59375 C 1.859375 -3.8125 2.03125 -3.984375 2.421875 -3.984375 C 2.765625 -3.984375 3.125 -3.875 3.484375 -3.625 L 4.109375 -4.4375 C 3.703125 -4.8125 3.09375 -5.0625 2.375 -5.0625 C 1.234375 -5.0625 0.484375 -4.4375 0.484375 -3.515625 C 0.484375 -2.75 1.09375 -2.296875 1.796875 -2.046875 C 2.328125 -1.84375 2.765625 -1.71875 2.765625 -1.390625 C 2.765625 -1.125 2.578125 -0.96875 2.140625 -0.96875 C 1.734375 -0.96875 1.28125 -1.09375 0.828125 -1.453125 L 0.203125 -0.625 C 0.703125 -0.140625 1.453125 0.125 2.109375 0.125 Z M 2.109375 0.125 "/>
</g>
<g id="glyph-0-10">
<path d="M 0.640625 0 L 2.109375 0 L 2.109375 -2.875 C 2.375 -3.53125 2.828125 -3.78125 3.203125 -3.78125 C 3.40625 -3.78125 3.53125 -3.765625 3.703125 -3.71875 L 3.984375 -4.96875 C 3.84375 -5.03125 3.671875 -5.0625 3.390625 -5.0625 C 2.875 -5.0625 2.34375 -4.75 1.984375 -4.078125 L 1.9375 -4.078125 L 1.84375 -4.9375 L 0.640625 -4.9375 Z M 0.640625 0 "/>
</g>
<g id="glyph-0-11">
<path d="M 3.40625 0.125 C 5.15625 0.125 6.359375 -1.15625 6.359375 -3.28125 C 6.359375 -5.390625 5.15625 -6.625 3.40625 -6.625 C 1.65625 -6.625 0.453125 -5.40625 0.453125 -3.28125 C 0.453125 -1.15625 1.65625 0.125 3.40625 0.125 Z M 3.40625 -1.140625 C 2.515625 -1.140625 1.96875 -1.96875 1.96875 -3.28125 C 1.96875 -4.578125 2.515625 -5.359375 3.40625 -5.359375 C 4.296875 -5.359375 4.859375 -4.578125 4.859375 -3.28125 C 4.859375 -1.96875 4.296875 -1.140625 3.40625 -1.140625 Z M 3.40625 -1.140625 "/>
</g>
<g id="glyph-0-12">
<path d="M 0.765625 0 L 2.234375 0 L 2.234375 -2.34375 L 3.046875 -2.34375 L 4.28125 0 L 5.9375 0 L 4.453125 -2.609375 C 5.15625 -2.90625 5.609375 -3.515625 5.609375 -4.46875 C 5.609375 -6.015625 4.484375 -6.5 3.109375 -6.5 L 0.765625 -6.5 Z M 2.234375 -3.515625 L 2.234375 -5.328125 L 2.984375 -5.328125 C 3.765625 -5.328125 4.171875 -5.109375 4.171875 -4.46875 C 4.171875 -3.84375 3.765625 -3.515625 2.984375 -3.515625 Z M 2.234375 -3.515625 "/>
</g>
<g id="glyph-0-13">
<path d="M 2.296875 -3.296875 C 2.46875 -3.9375 2.640625 -4.6875 2.796875 -5.390625 L 2.84375 -5.390625 C 3.015625 -4.703125 3.1875 -3.9375 3.375 -3.296875 L 3.515625 -2.6875 L 2.140625 -2.6875 Z M -0.0625 0 L 1.4375 0 L 1.828125 -1.546875 L 3.8125 -1.546875 L 4.21875 0 L 5.765625 0 L 3.734375 -6.5 L 1.96875 -6.5 Z M -0.0625 0 "/>
</g>
<g id="glyph-0-14">
<path d="M 0.765625 0 L 2.171875 0 L 2.171875 -2.296875 C 2.171875 -3.078125 2.046875 -3.953125 1.96875 -4.671875 L 2.015625 -4.671875 C 2.21875 -4.15625 2.4375 -3.640625 2.65625 -3.203125 L 4.328125 0 L 5.859375 0 L 5.859375 -6.5 L 4.453125 -6.5 L 4.453125 -4.203125 C 4.453125 -3.421875 4.578125 -2.53125 4.640625 -1.828125 L 4.609375 -1.828125 C 4.40625 -2.34375 4.203125 -2.859375 3.96875 -3.296875 L 2.296875 -6.5 L 0.765625 -6.5 Z M 0.765625 0 "/>
</g>
<g id="glyph-0-15">
<path d="M 0.765625 0 L 2.6875 0 C 4.578125 0 5.859375 -1.046875 5.859375 -3.28125 C 5.859375 -5.515625 4.578125 -6.5 2.609375 -6.5 L 0.765625 -6.5 Z M 2.234375 -1.1875 L 2.234375 -5.3125 L 2.515625 -5.3125 C 3.625 -5.3125 4.359375 -4.828125 4.359375 -3.28125 C 4.359375 -1.71875 3.625 -1.1875 2.515625 -1.1875 Z M 2.234375 -1.1875 "/>
</g>
<g id="glyph-1-0">
<path d="M 0.71875 0 L 1.375 0 L 1.375 -5.234375 L 0.71875 -5.234375 Z M 0.71875 0 "/>
</g>
<g id="glyph-1-1">
<path d="M 0.71875 0 L 1.34375 0 L 1.34375 -2.734375 C 1.34375 -3.296875 1.3125 -3.84375 1.265625 -4.375 L 1.296875 -4.375 C 1.453125 -4 1.65625 -3.609375 1.859375 -3.25 L 3.71875 0 L 4.4375 0 L 4.4375 -5.234375 L 3.796875 -5.234375 L 3.796875 -2.515625 C 3.796875 -1.96875 3.84375 -1.390625 3.890625 -0.859375 L 3.859375 -0.859375 C 3.6875 -1.234375 3.5 -1.625 3.296875 -1.96875 L 1.4375 -5.234375 L 0.71875 -5.234375 Z M 0.71875 0 "/>
</g>
<g id="glyph-1-2">
<path d="M 0.625 0 L 3.5 0 L 3.5 -0.546875 L 2.453125 -0.546875 L 2.453125 -5.078125 L 1.9375 -5.078125 C 1.671875 -4.921875 1.328125 -4.796875 0.875 -4.703125 L 0.875 -4.28125 L 1.796875 -4.28125 L 1.796875 -0.546875 L 0.625 -0.546875 Z M 0.625 0 "/>
</g>
<g id="glyph-1-3">
<path d="M 0.3125 0 L 3.609375 0 L 3.609375 -0.5625 L 2.078125 -0.5625 C 1.8125 -0.5625 1.5 -0.546875 1.21875 -0.515625 C 2.453125 -1.78125 3.34375 -2.703125 3.34375 -3.6875 C 3.34375 -4.578125 2.765625 -5.171875 1.828125 -5.171875 C 1.171875 -5.171875 0.71875 -4.875 0.296875 -4.390625 L 0.65625 -4.03125 C 0.953125 -4.375 1.328125 -4.640625 1.75 -4.640625 C 2.390625 -4.640625 2.703125 -4.234375 2.703125 -3.65625 C 2.703125 -2.828125 1.84375 -1.890625 0.3125 -0.390625 Z M 0.3125 0 "/>
</g>
<g id="glyph-1-4">
<path d="M 1.875 0.09375 C 2.8125 0.09375 3.546875 -0.453125 3.546875 -1.359375 C 3.546875 -2.0625 3.0625 -2.5 2.453125 -2.640625 L 2.453125 -2.671875 C 3 -2.890625 3.375 -3.28125 3.375 -3.890625 C 3.375 -4.703125 2.734375 -5.171875 1.859375 -5.171875 C 1.265625 -5.171875 0.78125 -4.90625 0.390625 -4.546875 L 0.75 -4.125 C 1.046875 -4.4375 1.40625 -4.640625 1.828125 -4.640625 C 2.375 -4.640625 2.703125 -4.328125 2.703125 -3.84375 C 2.703125 -3.3125 2.34375 -2.890625 1.265625 -2.890625 L 1.265625 -2.390625 C 2.484375 -2.390625 2.890625 -1.984375 2.890625 -1.375 C 2.890625 -0.8125 2.453125 -0.453125 1.84375 -0.453125 C 1.25 -0.453125 0.84375 -0.734375 0.546875 -1.046875 L 0.203125 -0.625 C 0.546875 -0.25 1.0625 0.09375 1.875 0.09375 Z M 1.875 0.09375 "/>
</g>
<g id="glyph-1-5">
<path d="M 2.640625 0.09375 C 3.953125 0.09375 4.890625 -0.953125 4.890625 -2.640625 C 4.890625 -4.296875 3.953125 -5.328125 2.640625 -5.328125 C 1.328125 -5.328125 0.421875 -4.3125 0.421875 -2.640625 C 0.421875 -0.953125 1.328125 0.09375 2.640625 0.09375 Z M 2.640625 -0.484375 C 1.71875 -0.484375 1.09375 -1.328125 1.09375 -2.640625 C 1.09375 -3.9375 1.71875 -4.734375 2.640625 -4.734375 C 3.578125 -4.734375 4.1875 -3.9375 4.1875 -2.640625 C 4.1875 -1.328125 3.578125 -0.484375 2.640625 -0.484375 Z M 2.640625 -0.484375 "/>
</g>
<g id="glyph-1-6">
<path d="M 2.578125 0.09375 C 3.640625 0.09375 4.453125 -0.46875 4.453125 -2.125 L 4.453125 -5.234375 L 3.8125 -5.234375 L 3.8125 -2.109375 C 3.8125 -0.875 3.265625 -0.484375 2.578125 -0.484375 C 1.890625 -0.484375 1.359375 -0.875 1.359375 -2.109375 L 1.359375 -5.234375 L 0.6875 -5.234375 L 0.6875 -2.125 C 0.6875 -0.46875 1.5 0.09375 2.578125 0.09375 Z M 2.578125 0.09375 "/>
</g>
<g id="glyph-1-7">
<path d="M 1.796875 0 L 2.46875 0 L 2.46875 -4.671875 L 4.046875 -4.671875 L 4.046875 -5.234375 L 0.21875 -5.234375 L 0.21875 -4.671875 L 1.796875 -4.671875 Z M 1.796875 0 "/>
</g>
<g id="glyph-1-8">
<path d="M 1.640625 0 L 2.421875 0 L 4.109375 -5.234375 L 3.421875 -5.234375 L 2.5625 -2.40625 C 2.359375 -1.78125 2.234375 -1.296875 2.0625 -0.671875 L 2.03125 -0.671875 C 1.84375 -1.296875 1.703125 -1.78125 1.515625 -2.40625 L 0.703125 -5.234375 L 0 -5.234375 Z M 1.640625 0 "/>
</g>
<g id="glyph-1-9">
<path d="M 2.703125 0.09375 C 3.375 0.09375 3.859375 -0.171875 4.28125 -0.65625 L 3.9375 -1.03125 C 3.609375 -0.671875 3.234375 -0.484375 2.75 -0.484375 C 1.734375 -0.484375 1.09375 -1.3125 1.09375 -2.625 C 1.09375 -3.921875 1.765625 -4.734375 2.734375 -4.734375 C 3.171875 -4.734375 3.53125 -4.5625 3.8125 -4.265625 L 4.171875 -4.671875 C 3.859375 -5.03125 3.359375 -5.328125 2.734375 -5.328125 C 1.40625 -5.328125 0.421875 -4.296875 0.421875 -2.609375 C 0.421875 -0.90625 1.390625 0.09375 2.703125 0.09375 Z M 2.703125 0.09375 "/>
</g>
</g>
<clipPath id="clip-0">
<path clip-rule="nonzero" d="M 11 1.933594 L 91.503906 1.933594 L 91.503906 10.949219 L 11 10.949219 Z M 11 1.933594 "/>
</clipPath>
<clipPath id="clip-1">
<path clip-rule="nonzero" d="M 120 1.933594 L 206 1.933594 L 206 10.949219 L 120 10.949219 Z M 120 1.933594 "/>
</clipPath>
<clipPath id="clip-2">
<path clip-rule="nonzero" d="M 2 19.796875 L 12.609375 19.796875 L 12.609375 25 L 2 25 Z M 2 19.796875 "/>
</clipPath>
<clipPath id="clip-3">
<path clip-rule="nonzero" d="M 2 35.796875 L 12.609375 35.796875 L 12.609375 41 L 2 41 Z M 2 35.796875 "/>
</clipPath>
<clipPath id="clip-4">
<path clip-rule="nonzero" d="M 2 51.789063 L 12.609375 51.789063 L 12.609375 57.078125 L 2 57.078125 Z M 2 51.789063 "/>
</clipPath>
<clipPath id="clip-5">
<path clip-rule="nonzero" d="M 114 47.796875 L 124.609375 47.796875 L 124.609375 53 L 114 53 Z M 114 47.796875 "/>
</clipPath>
<clipPath id="clip-6">
<path clip-rule="nonzero" d="M 114 63.796875 L 124.609375 63.796875 L 124.609375 69 L 114 69 Z M 114 63.796875 "/>
</clipPath>
<clipPath id="clip-7">
<path clip-rule="nonzero" d="M 114 79.789063 L 124.609375 79.789063 L 124.609375 85.078125 L 114 85.078125 Z M 114 79.789063 "/>
</clipPath>
<clipPath id="clip-8">
<path clip-rule="nonzero" d="M 90 19.789063 L 104.351563 19.789063 L 104.351563 25.078125 L 90 25.078125 Z M 90 19.789063 "/>
</clipPath>
<clipPath id="clip-9">
<path clip-rule="nonzero" d="M 202 47.789063 L 216.351563 47.789063 L 216.351563 53.078125 L 202 53.078125 Z M 202 47.789063 "/>
</clipPath>
<clipPath id="clip-10">
<path clip-rule="nonzero" d="M 166.550781 19.789063 L 179.445313 19.789063 L 179.445313 25.078125 L 166.550781 25.078125 Z M 166.550781 19.789063 "/>
</clipPath>
</defs>
<g clip-path="url(#clip-0)">
<g fill="rgb(0%, 0%, 0%)" fill-opacity="1">
<use xlink:href="#glyph-0-0" x="10.497" y="8.997"/>
<use xlink:href="#glyph-0-1" x="18.088501" y="8.997"/>
<use xlink:href="#glyph-0-2" x="20.838179" y="8.997"/>
<use xlink:href="#glyph-0-3" x="25.490713" y="8.997"/>
<use xlink:href="#glyph-0-4" x="30.671265" y="8.997"/>
<use xlink:href="#glyph-0-5" x="35.772116" y="8.997"/>
<use xlink:href="#glyph-0-6" x="40.962631" y="8.997"/>
<use xlink:href="#glyph-0-0" x="44.270214" y="8.997"/>
<use xlink:href="#glyph-0-7" x="51.861715" y="8.997"/>
<use xlink:href="#glyph-0-8" x="57.390958" y="8.997"/>
<use xlink:href="#glyph-0-9" x="63.049715" y="8.997"/>
<use xlink:href="#glyph-0-4" x="67.463147" y="8.997"/>
<use xlink:href="#glyph-0-10" x="72.623774" y="8.997"/>
<use xlink:href="#glyph-0-11" x="78.581408" y="8.997"/>
<use xlink:href="#glyph-0-12" x="85.395827" y="8.997"/>
</g>
</g>
<path fill="none" stroke-width="0.7" stroke-linecap="butt" stroke-linejoin="round" stroke="rgb(0%, 0%, 0%)" stroke-opacity="1" stroke-miterlimit="10" d="M 32 800 L 96 800 " transform="matrix(1, 0, 0, -1, -13, 825)"/>
<path fill="none" stroke-width="1" stroke-linecap="butt" stroke-linejoin="round" stroke="rgb(0%, 0%, 0%)" stroke-opacity="1" stroke-miterlimit="10" d="M 32 800 C 32 802.667969 28 802.667969 28 800 C 28 797.332031 32 797.332031 32 800 Z M 32 800 " transform="matrix(1, 0, 0, -1, -13, 825)"/>
<path fill="none" stroke-width="1" stroke-linecap="butt" stroke-linejoin="round" stroke="rgb(0%, 0%, 0%)" stroke-opacity="1" stroke-miterlimit="10" d="M 100 800 C 100 802.667969 96 802.667969 96 800 C 96 797.332031 100 797.332031 100 800 Z M 100 800 " transform="matrix(1, 0, 0, -1, -13, 825)"/>
<path fill="none" stroke-width="1" stroke-linecap="butt" stroke-linejoin="round" stroke="rgb(0%, 0%, 0%)" stroke-opacity="1" stroke-miterlimit="10" d="M 44 804 L 52 800 L 44 796 Z M 44 804 " transform="matrix(1, 0, 0, -1, -13, 825)"/>
<path fill="none" stroke-width="1" stroke-linecap="butt" stroke-linejoin="round" stroke="rgb(0%, 0%, 0%)" stroke-opacity="1" stroke-miterlimit="10" d="M 52 804 L 52 796 " transform="matrix(1, 0, 0, -1, -13, 825)"/>
<path fill="none" stroke-width="1" stroke-linecap="butt" stroke-linejoin="round" stroke="rgb(0%, 0%, 0%)" stroke-opacity="1" stroke-miterlimit="10" d="M 44 788 L 52 784 L 44 780 Z M 44 788 " transform="matrix(1, 0, 0, -1, -13, 825)"/>
<path fill="none" stroke-width="1" stroke-linecap="butt" stroke-linejoin="round" stroke="rgb(0%, 0%, 0%)" stroke-opacity="1" stroke-miterlimit="10" d="M 52 788 L 52 780 " transform="matrix(1, 0, 0, -1, -13, 825)"/>
<path fill="none" stroke-width="1" stroke-linecap="butt" stroke-linejoin="round" stroke="rgb(0%, 0%, 0%)" stroke-opacity="1" stroke-miterlimit="10" d="M 44 772 L 52 768 L 44 764 Z M 44 772 " transform="matrix(1, 0, 0, -1, -13, 825)"/>
<path fill="none" stroke-width="1" stroke-linecap="butt" stroke-linejoin="round" stroke="rgb(0%, 0%, 0%)" stroke-opacity="1" stroke-miterlimit="10" d="M 52 772 L 52 764 " transform="matrix(1, 0, 0, -1, -13, 825)"/>
<path fill="none" stroke-width="0.7" stroke-linecap="butt" stroke-linejoin="round" stroke="rgb(0%, 0%, 0%)" stroke-opacity="1" stroke-miterlimit="10" d="M 32 784 L 64 784 " transform="matrix(1, 0, 0, -1, -13, 825)"/>
<path fill="none" stroke-width="0.7" stroke-linecap="butt" stroke-linejoin="round" stroke="rgb(0%, 0%, 0%)" stroke-opacity="1" stroke-miterlimit="10" d="M 32 768 L 64 768 L 64 800 " transform="matrix(1, 0, 0, -1, -13, 825)"/>
<path fill="none" stroke-width="1" stroke-linecap="butt" stroke-linejoin="round" stroke="rgb(0%, 0%, 0%)" stroke-opacity="1" stroke-miterlimit="10" d="M 32 784 C 32 786.667969 28 786.667969 28 784 C 28 781.332031 32 781.332031 32 784 Z M 32 784 " transform="matrix(1, 0, 0, -1, -13, 825)"/>
<path fill="none" stroke-width="1" stroke-linecap="butt" stroke-linejoin="round" stroke="rgb(0%, 0%, 0%)" stroke-opacity="1" stroke-miterlimit="10" d="M 32 768 C 32 770.667969 28 770.667969 28 768 C 28 765.332031 32 765.332031 32 768 Z M 32 768 " transform="matrix(1, 0, 0, -1, -13, 825)"/>
<path fill-rule="evenodd" fill="rgb(0%, 0%, 0%)" fill-opacity="1" d="M 52.199219 25 C 52.199219 23.398438 49.800781 23.398438 49.800781 25 C 49.800781 26.601563 52.199219 26.601563 52.199219 25 Z M 52.199219 25 "/>
<path fill-rule="evenodd" fill="rgb(0%, 0%, 0%)" fill-opacity="1" d="M 52.199219 41 C 52.199219 39.398438 49.800781 39.398438 49.800781 41 C 49.800781 42.601563 52.199219 42.601563 52.199219 41 Z M 52.199219 41 "/>
<path fill-rule="evenodd" fill="rgb(0%, 0%, 0%)" fill-opacity="1" d="M 52.199219 57 C 52.199219 55.398438 49.800781 55.398438 49.800781 57 C 49.800781 58.601563 52.199219 58.601563 52.199219 57 Z M 52.199219 57 "/>
<path fill="none" stroke-width="0.7" stroke-linecap="butt" stroke-linejoin="round" stroke="rgb(0%, 0%, 0%)" stroke-opacity="1" stroke-miterlimit="10" d="M 64 768 L 64 760 " transform="matrix(1, 0, 0, -1, -13, 825)"/>
<path fill="none" stroke-width="0.7" stroke-linecap="butt" stroke-linejoin="round" stroke="rgb(0%, 0%, 0%)" stroke-opacity="1" stroke-miterlimit="10" d="M 61 760 L 61 748 L 67 748 L 67 760 Z M 61 760 " transform="matrix(1, 0, 0, -1, -13, 825)"/>
<path fill="none" stroke-width="0.7" stroke-linecap="butt" stroke-linejoin="round" stroke="rgb(0%, 0%, 0%)" stroke-opacity="1" stroke-miterlimit="10" d="M 64 748 L 64 740 " transform="matrix(1, 0, 0, -1, -13, 825)"/>
<path fill="none" stroke-width="1" stroke-linecap="butt" stroke-linejoin="round" stroke="rgb(0%, 0%, 0%)" stroke-opacity="1" stroke-miterlimit="10" d="M 60 740 L 68 740 " transform="matrix(1, 0, 0, -1, -13, 825)"/>
<g clip-path="url(#clip-1)">
<g fill="rgb(0%, 0%, 0%)" fill-opacity="1">
<use xlink:href="#glyph-0-0" x="119.6275" y="8.997"/>
<use xlink:href="#glyph-0-1" x="127.219001" y="8.997"/>
<use xlink:href="#glyph-0-2" x="129.968679" y="8.997"/>
<use xlink:href="#glyph-0-3" x="134.621213" y="8.997"/>
<use xlink:href="#glyph-0-4" x="139.801765" y="8.997"/>
<use xlink:href="#glyph-0-5" x="144.902616" y="8.997"/>
<use xlink:href="#glyph-0-6" x="150.093131" y="8.997"/>
<use xlink:href="#glyph-0-0" x="153.400714" y="8.997"/>
<use xlink:href="#glyph-0-7" x="160.992215" y="8.997"/>
<use xlink:href="#glyph-0-8" x="166.521458" y="8.997"/>
<use xlink:href="#glyph-0-9" x="172.180215" y="8.997"/>
<use xlink:href="#glyph-0-4" x="176.593647" y="8.997"/>
<use xlink:href="#glyph-0-10" x="181.754274" y="8.997"/>
<use xlink:href="#glyph-0-13" x="187.711908" y="8.997"/>
<use xlink:href="#glyph-0-14" x="193.420478" y="8.997"/>
<use xlink:href="#glyph-0-15" x="200.045607" y="8.997"/>
</g>
</g>
<path fill="none" stroke-width="0.7" stroke-linecap="butt" stroke-linejoin="round" stroke="rgb(0%, 0%, 0%)" stroke-opacity="1" stroke-miterlimit="10" d="M 144 772 L 208 772 " transform="matrix(1, 0, 0, -1, -13, 825)"/>
<path fill="none" stroke-width="1" stroke-linecap="butt" stroke-linejoin="round" stroke="rgb(0%, 0%, 0%)" stroke-opacity="1" stroke-miterlimit="10" d="M 144 772 C 144 774.667969 140 774.667969 140 772 C 140 769.332031 144 769.332031 144 772 Z M 144 772 " transform="matrix(1, 0, 0, -1, -13, 825)"/>
<path fill="none" stroke-width="1" stroke-linecap="butt" stroke-linejoin="round" stroke="rgb(0%, 0%, 0%)" stroke-opacity="1" stroke-miterlimit="10" d="M 212 772 C 212 774.667969 208 774.667969 208 772 C 208 769.332031 212 769.332031 212 772 Z M 212 772 " transform="matrix(1, 0, 0, -1, -13, 825)"/>
<path fill="none" stroke-width="1" stroke-linecap="butt" stroke-linejoin="round" stroke="rgb(0%, 0%, 0%)" stroke-opacity="1" stroke-miterlimit="10" d="M 164 736 L 156 740 L 164 744 Z M 164 736 " transform="matrix(1, 0, 0, -1, -13, 825)"/>
<path fill="none" stroke-width="1" stroke-linecap="butt" stroke-linejoin="round" stroke="rgb(0%, 0%, 0%)" stroke-opacity="1" stroke-miterlimit="10" d="M 156 736 L 156 744 " transform="matrix(1, 0, 0, -1, -13, 825)"/>
<path fill="none" stroke-width="1" stroke-linecap="butt" stroke-linejoin="round" stroke="rgb(0%, 0%, 0%)" stroke-opacity="1" stroke-miterlimit="10" d="M 164 752 L 156 756 L 164 760 Z M 164 752 " transform="matrix(1, 0, 0, -1, -13, 825)"/>
<path fill="none" stroke-width="1" stroke-linecap="butt" stroke-linejoin="round" stroke="rgb(0%, 0%, 0%)" stroke-opacity="1" stroke-miterlimit="10" d="M 156 752 L 156 760 " transform="matrix(1, 0, 0, -1, -13, 825)"/>
<path fill="none" stroke-width="1" stroke-linecap="butt" stroke-linejoin="round" stroke="rgb(0%, 0%, 0%)" stroke-opacity="1" stroke-miterlimit="10" d="M 164 768 L 156 772 L 164 776 Z M 164 768 " transform="matrix(1, 0, 0, -1, -13, 825)"/>
<path fill="none" stroke-width="1" stroke-linecap="butt" stroke-linejoin="round" stroke="rgb(0%, 0%, 0%)" stroke-opacity="1" stroke-miterlimit="10" d="M 156 768 L 156 776 " transform="matrix(1, 0, 0, -1, -13, 825)"/>
<path fill="none" stroke-width="0.7" stroke-linecap="butt" stroke-linejoin="round" stroke="rgb(0%, 0%, 0%)" stroke-opacity="1" stroke-miterlimit="10" d="M 144 756 L 176 756 " transform="matrix(1, 0, 0, -1, -13, 825)"/>
<path fill="none" stroke-width="0.7" stroke-linecap="butt" stroke-linejoin="round" stroke="rgb(0%, 0%, 0%)" stroke-opacity="1" stroke-miterlimit="10" d="M 144 740 L 176 740 L 176 772 " transform="matrix(1, 0, 0, -1, -13, 825)"/>
<path fill="none" stroke-width="1" stroke-linecap="butt" stroke-linejoin="round" stroke="rgb(0%, 0%, 0%)" stroke-opacity="1" stroke-miterlimit="10" d="M 144 756 C 144 758.667969 140 758.667969 140 756 C 140 753.332031 144 753.332031 144 756 Z M 144 756 " transform="matrix(1, 0, 0, -1, -13, 825)"/>
<path fill="none" stroke-width="1" stroke-linecap="butt" stroke-linejoin="round" stroke="rgb(0%, 0%, 0%)" stroke-opacity="1" stroke-miterlimit="10" d="M 144 740 C 144 742.667969 140 742.667969 140 740 C 140 737.332031 144 737.332031 144 740 Z M 144 740 " transform="matrix(1, 0, 0, -1, -13, 825)"/>
<path fill-rule="evenodd" fill="rgb(0%, 0%, 0%)" fill-opacity="1" d="M 164.199219 53 C 164.199219 51.398438 161.800781 51.398438 161.800781 53 C 161.800781 54.601563 164.199219 54.601563 164.199219 53 Z M 164.199219 53 "/>
<path fill-rule="evenodd" fill="rgb(0%, 0%, 0%)" fill-opacity="1" d="M 164.199219 69 C 164.199219 67.398438 161.800781 67.398438 161.800781 69 C 161.800781 70.601563 164.199219 70.601563 164.199219 69 Z M 164.199219 69 "/>
<path fill="none" stroke-width="0.7" stroke-linecap="butt" stroke-linejoin="round" stroke="rgb(0%, 0%, 0%)" stroke-opacity="1" stroke-miterlimit="10" d="M 176 800 L 176 792 " transform="matrix(1, 0, 0, -1, -13, 825)"/>
<path fill="none" stroke-width="0.7" stroke-linecap="butt" stroke-linejoin="round" stroke="rgb(0%, 0%, 0%)" stroke-opacity="1" stroke-miterlimit="10" d="M 173 792 L 173 780 L 179 780 L 179 792 Z M 173 792 " transform="matrix(1, 0, 0, -1, -13, 825)"/>
<path fill="none" stroke-width="0.7" stroke-linecap="butt" stroke-linejoin="round" stroke="rgb(0%, 0%, 0%)" stroke-opacity="1" stroke-miterlimit="10" d="M 176 780 L 176 772 " transform="matrix(1, 0, 0, -1, -13, 825)"/>
<path fill="none" stroke-width="1" stroke-linecap="butt" stroke-linejoin="round" stroke="rgb(0%, 0%, 0%)" stroke-opacity="1" stroke-miterlimit="10" d="M 178 802 C 178 804.667969 174 804.667969 174 802 C 174 799.332031 178 799.332031 178 802 Z M 178 802 " transform="matrix(1, 0, 0, -1, -13, 825)"/>
<g clip-path="url(#clip-2)">
<g fill="rgb(0%, 0%, 0%)" fill-opacity="1">
<use xlink:href="#glyph-1-0" x="1.393" y="25"/>
<use xlink:href="#glyph-1-1" x="3.489136" y="25"/>
<use xlink:href="#glyph-1-2" x="8.645791" y="25"/>
</g>
</g>
<g clip-path="url(#clip-3)">
<g fill="rgb(0%, 0%, 0%)" fill-opacity="1">
<use xlink:href="#glyph-1-0" x="1.393" y="41"/>
<use xlink:href="#glyph-1-1" x="3.489136" y="41"/>
<use xlink:href="#glyph-1-3" x="8.645791" y="41"/>
</g>
</g>
<g clip-path="url(#clip-4)">
<g fill="rgb(0%, 0%, 0%)" fill-opacity="1">
<use xlink:href="#glyph-1-0" x="1.393" y="56.996"/>
<use xlink:href="#glyph-1-1" x="3.489136" y="56.996"/>
<use xlink:href="#glyph-1-4" x="8.645791" y="56.996"/>
</g>
</g>
<g clip-path="url(#clip-5)">
<g fill="rgb(0%, 0%, 0%)" fill-opacity="1">
<use xlink:href="#glyph-1-0" x="113.393" y="53"/>
<use xlink:href="#glyph-1-1" x="115.489136" y="53"/>
<use xlink:href="#glyph-1-2" x="120.645791" y="53"/>
</g>
</g>
<g clip-path="url(#clip-6)">
<g fill="rgb(0%, 0%, 0%)" fill-opacity="1">
<use xlink:href="#glyph-1-0" x="113.393" y="69"/>
<use xlink:href="#glyph-1-1" x="115.489136" y="69"/>
<use xlink:href="#glyph-1-3" x="120.645791" y="69"/>
</g>
</g>
<g clip-path="url(#clip-7)">
<g fill="rgb(0%, 0%, 0%)" fill-opacity="1">
<use xlink:href="#glyph-1-0" x="113.393" y="84.996"/>
<use xlink:href="#glyph-1-1" x="115.489136" y="84.996"/>
<use xlink:href="#glyph-1-4" x="120.645791" y="84.996"/>
</g>
</g>
<g clip-path="url(#clip-8)">
<g fill="rgb(0%, 0%, 0%)" fill-opacity="1">
<use xlink:href="#glyph-1-5" x="89.6475" y="24.996"/>
<use xlink:href="#glyph-1-6" x="94.939646" y="24.996"/>
<use xlink:href="#glyph-1-7" x="100.080361" y="24.996"/>
</g>
</g>
<g clip-path="url(#clip-9)">
<g fill="rgb(0%, 0%, 0%)" fill-opacity="1">
<use xlink:href="#glyph-1-5" x="201.6475" y="52.996"/>
<use xlink:href="#glyph-1-6" x="206.939646" y="52.996"/>
<use xlink:href="#glyph-1-7" x="212.080361" y="52.996"/>
</g>
</g>
<g clip-path="url(#clip-10)">
<g fill="rgb(0%, 0%, 0%)" fill-opacity="1">
<use xlink:href="#glyph-1-8" x="166.552" y="24.996"/>
<use xlink:href="#glyph-1-9" x="170.5769" y="24.996"/>
<use xlink:href="#glyph-1-9" x="174.896695" y="24.996"/>
</g>
</g>
</svg>
