<?xml version="1.0" encoding="UTF-8"?>
<svg xmlns="http://www.w3.org/2000/svg" xmlns:xlink="http://www.w3.org/1999/xlink" width="28" height="27" viewBox="0 0 28 27">
<path fill="none" stroke-width="1.5" stroke-linecap="butt" stroke-linejoin="round" stroke="rgb(0%, 0%, 0%)" stroke-opacity="1" stroke-miterlimit="10" d="M 164 800 C 164 801.332031 162 801.332031 162 800 C 162 798.667969 164 798.667969 164 800 Z M 164 800 " transform="matrix(1, 0, 0, -1, -138, 805)"/>
<path fill="none" stroke-width="1.5" stroke-linecap="butt" stroke-linejoin="round" stroke="rgb(0%, 0%, 0%)" stroke-opacity="1" stroke-miterlimit="10" d="M 142 800 C 142 801.332031 140 801.332031 140 800 C 140 798.667969 142 798.667969 142 800 Z M 142 800 " transform="matrix(1, 0, 0, -1, -138, 805)"/>
<path fill="none" stroke-width="1.5" stroke-linecap="butt" stroke-linejoin="round" stroke="rgb(0%, 0%, 0%)" stroke-opacity="1" stroke-miterlimit="10" d="M 142 784 C 142 785.332031 140 785.332031 140 784 C 140 782.667969 142 782.667969 142 784 Z M 142 784 " transform="matrix(1, 0, 0, -1, -138, 805)"/>
<path fill="none" stroke-width="1.5" stroke-linecap="butt" stroke-linejoin="round" stroke="rgb(0%, 0%, 0%)" stroke-opacity="1" stroke-miterlimit="10" d="M 142 800 L 148 800 C 150.667969 800 150.667969 796 148 796 C 150.667969 796 150.667969 792 148 792 C 150.667969 792 150.667969 788 148 788 C 150.667969 788 150.667969 784 148 784 L 142 784 " transform="matrix(1, 0, 0, -1, -138, 805)"/>
<path fill="none" stroke-width="1.5" stroke-linecap="butt" stroke-linejoin="round" stroke="rgb(0%, 0%, 0%)" stroke-opacity="1" stroke-miterlimit="10" d="M 162 784 L 156 784 C 153.332031 784 153.332031 788 156 788 C 153.332031 788 153.332031 792 156 792 C 153.332031 792 153.332031 796 156 796 C 153.332031 796 153.332031 800 156 800 L 162 800 " transform="matrix(1, 0, 0, -1, -138, 805)"/>
<path fill="none" stroke-width="1.5" stroke-linecap="butt" stroke-linejoin="round" stroke="rgb(0%, 0%, 0%)" stroke-opacity="1" stroke-miterlimit="10" d="M 164 784 C 164 785.332031 162 785.332031 162 784 C 162 782.667969 164 782.667969 164 784 Z M 164 784 " transform="matrix(1, 0, 0, -1, -138, 805)"/>
</svg>
