<?xml version="1.0" encoding="UTF-8"?>
<svg xmlns="http://www.w3.org/2000/svg" xmlns:xlink="http://www.w3.org/1999/xlink" width="16" height="16" viewBox="0 0 16 16">
<path fill="none" stroke-width="0.7" stroke-linecap="butt" stroke-linejoin="round" stroke="rgb(0%, 0%, 0%)" stroke-opacity="1" stroke-miterlimit="10" d="M 129.757813 793.414063 C 124.101563 787.757813 129.757813 782.101563 135.414063 787.757813 " transform="matrix(1, 0, 0, -1, -126, 800)"/>
<path fill="none" stroke-width="0.7" stroke-linecap="butt" stroke-linejoin="round" stroke="rgb(0%, 0%, 0%)" stroke-opacity="1" stroke-miterlimit="10" d="M 138.242188 790.585938 C 143.898438 796.242188 138.242188 801.898438 132.585938 796.242188 " transform="matrix(1, 0, 0, -1, -126, 800)"/>
<path fill="none" stroke-width="0.7" stroke-linecap="butt" stroke-linejoin="round" stroke="rgb(0%, 0%, 0%)" stroke-opacity="1" stroke-miterlimit="10" d="M 139.65625 797.65625 L 141.070313 799.070313 " transform="matrix(1, 0, 0, -1, -126, 800)"/>
<path fill="none" stroke-width="0.7" stroke-linecap="butt" stroke-linejoin="round" stroke="rgb(0%, 0%, 0%)" stroke-opacity="1" stroke-miterlimit="10" d="M 128.34375 786.34375 L 126.929688 784.929688 " transform="matrix(1, 0, 0, -1, -126, 800)"/>
<path fill="none" stroke-width="0.7" stroke-linecap="butt" stroke-linejoin="round" stroke="rgb(0%, 0%, 0%)" stroke-opacity="1" stroke-miterlimit="10" d="M 131.171875 792 L 134 794.828125 " transform="matrix(1, 0, 0, -1, -126, 800)"/>
<path fill="none" stroke-width="0.7" stroke-linecap="butt" stroke-linejoin="round" stroke="rgb(0%, 0%, 0%)" stroke-opacity="1" stroke-miterlimit="10" d="M 134 789.171875 L 136.828125 792 " transform="matrix(1, 0, 0, -1, -126, 800)"/>
<path fill="none" stroke-width="0.7" stroke-linecap="butt" stroke-linejoin="round" stroke="rgb(0%, 0%, 0%)" stroke-opacity="1" stroke-miterlimit="10" d="M 129.757813 793.414063 L 135.414063 787.757813 " transform="matrix(1, 0, 0, -1, -126, 800)"/>
</svg>
