<?xml version="1.0" encoding="UTF-8"?>
<svg xmlns="http://www.w3.org/2000/svg" xmlns:xlink="http://www.w3.org/1999/xlink" width="27" height="27" viewBox="0 0 27 27">
<path fill="none" stroke-width="1.5" stroke-linecap="butt" stroke-linejoin="round" stroke="rgb(0%, 0%, 0%)" stroke-opacity="1" stroke-miterlimit="10" d="M 144 800 L 144 784 L 160 784 L 160 800 Z M 144 800 " transform="matrix(1, 0, 0, -1, -139, 805)"/>
<path fill="none" stroke-width="1.5" stroke-linecap="butt" stroke-linejoin="round" stroke="rgb(0%, 0%, 0%)" stroke-opacity="1" stroke-miterlimit="10" d="M 152 796 C 152 793.332031 156 793.332031 156 796 " transform="matrix(1, 0, 0, -1, -139, 805)"/>
<path fill="none" stroke-width="1.5" stroke-linecap="butt" stroke-linejoin="round" stroke="rgb(0%, 0%, 0%)" stroke-opacity="1" stroke-miterlimit="10" d="M 152 796 C 152 798.667969 148 798.667969 148 796 " transform="matrix(1, 0, 0, -1, -139, 805)"/>
<path fill="none" stroke-width="1.5" stroke-linecap="butt" stroke-linejoin="round" stroke="rgb(0%, 0%, 0%)" stroke-opacity="1" stroke-miterlimit="10" d="M 152 792 C 152 789.332031 156 789.332031 156 792 " transform="matrix(1, 0, 0, -1, -139, 805)"/>
<path fill="none" stroke-width="1.5" stroke-linecap="butt" stroke-linejoin="round" stroke="rgb(0%, 0%, 0%)" stroke-opacity="1" stroke-miterlimit="10" d="M 152 792 C 152 794.667969 148 794.667969 148 792 " transform="matrix(1, 0, 0, -1, -139, 805)"/>
<path fill="none" stroke-width="1.5" stroke-linecap="butt" stroke-linejoin="round" stroke="rgb(0%, 0%, 0%)" stroke-opacity="1" stroke-miterlimit="10" d="M 152 788 C 152 785.332031 156 785.332031 156 788 " transform="matrix(1, 0, 0, -1, -139, 805)"/>
<path fill="none" stroke-width="1.5" stroke-linecap="butt" stroke-linejoin="round" stroke="rgb(0%, 0%, 0%)" stroke-opacity="1" stroke-miterlimit="10" d="M 152 788 C 152 790.667969 148 790.667969 148 788 " transform="matrix(1, 0, 0, -1, -139, 805)"/>
<path fill="none" stroke-width="1.5" stroke-linecap="butt" stroke-linejoin="round" stroke="rgb(0%, 0%, 0%)" stroke-opacity="1" stroke-miterlimit="10" d="M 150 786 L 154 789 " transform="matrix(1, 0, 0, -1, -139, 805)"/>
<path fill="none" stroke-width="1.5" stroke-linecap="butt" stroke-linejoin="round" stroke="rgb(0%, 0%, 0%)" stroke-opacity="1" stroke-miterlimit="10" d="M 150 795 L 154 798 " transform="matrix(1, 0, 0, -1, -139, 805)"/>
<path fill="none" stroke-width="1.5" stroke-linecap="butt" stroke-linejoin="round" stroke="rgb(0%, 0%, 0%)" stroke-opacity="1" stroke-miterlimit="10" d="M 140 792 L 144 792 " transform="matrix(1, 0, 0, -1, -139, 805)"/>
<path fill="none" stroke-width="1.5" stroke-linecap="butt" stroke-linejoin="round" stroke="rgb(0%, 0%, 0%)" stroke-opacity="1" stroke-miterlimit="10" d="M 160 792 L 164 792 " transform="matrix(1, 0, 0, -1, -139, 805)"/>
</svg>
