<?xml version="1.0" encoding="UTF-8"?>
<svg xmlns="http://www.w3.org/2000/svg" xmlns:xlink="http://www.w3.org/1999/xlink" width="27" height="27" viewBox="0 0 27 27">
<path fill="none" stroke-width="1.5" stroke-linecap="butt" stroke-linejoin="round" stroke="rgb(0%, 0%, 0%)" stroke-opacity="1" stroke-miterlimit="10" d="M 140 792 L 164 792 " transform="matrix(1, 0, 0, -1, -139, 805)"/>
<path fill="none" stroke-width="1.5" stroke-linecap="butt" stroke-linejoin="round" stroke="rgb(0%, 0%, 0%)" stroke-opacity="1" stroke-miterlimit="10" d="M 152 800 L 156 804 " transform="matrix(1, 0, 0, -1, -139, 805)"/>
<path fill-rule="evenodd" fill="rgb(0%, 0%, 0%)" fill-opacity="1" stroke-width="1.5" stroke-linecap="butt" stroke-linejoin="round" stroke="rgb(0%, 0%, 0%)" stroke-opacity="1" stroke-miterlimit="10" d="M 156 804 L 153.171875 802.585938 L 154.585938 801.171875 Z M 156 804 " transform="matrix(1, 0, 0, -1, -139, 805)"/>
<path fill="none" stroke-width="1.5" stroke-linecap="butt" stroke-linejoin="round" stroke="rgb(0%, 0%, 0%)" stroke-opacity="1" stroke-miterlimit="10" d="M 158 800 L 162 804 " transform="matrix(1, 0, 0, -1, -139, 805)"/>
<path fill-rule="evenodd" fill="rgb(0%, 0%, 0%)" fill-opacity="1" stroke-width="1.5" stroke-linecap="butt" stroke-linejoin="round" stroke="rgb(0%, 0%, 0%)" stroke-opacity="1" stroke-miterlimit="10" d="M 162 804 L 159.171875 802.585938 L 160.585938 801.171875 Z M 162 804 " transform="matrix(1, 0, 0, -1, -139, 805)"/>
<path fill="none" stroke-width="1.5" stroke-linecap="butt" stroke-linejoin="round" stroke="rgb(0%, 0%, 0%)" stroke-opacity="1" stroke-miterlimit="10" d="M 148 798 L 158 792 L 148 786 Z M 148 798 " transform="matrix(1, 0, 0, -1, -139, 805)"/>
<path fill="none" stroke-width="1.5" stroke-linecap="butt" stroke-linejoin="round" stroke="rgb(0%, 0%, 0%)" stroke-opacity="1" stroke-miterlimit="10" d="M 158 798 L 158 786 " transform="matrix(1, 0, 0, -1, -139, 805)"/>
</svg>
